<svg width="185" height="20" viewBox="0 0 185 20" fill="none" xmlns="http://www.w3.org/2000/svg">
<g opacity="0.4">
<path d="M8.75747 19C7.49206 19 6.32702 18.7887 5.26233 18.3662C4.19765 17.9353 3.2726 17.31 2.48717 16.4903C1.70175 15.6707 1.09087 14.6736 0.654519 13.499C0.218173 12.3244 0 10.9893 0 9.49366C0 7.5248 0.370894 5.83478 1.11268 4.42362C1.85447 3.004 2.88425 1.91394 4.20201 1.15344C5.51978 0.384479 7.03826 0 8.75747 0C10.9741 0 12.7413 0.498555 14.0591 1.49566C15.3856 2.49277 16.2888 3.87014 16.7688 5.62775L13.9936 6.10941C13.6096 5.01935 12.99 4.14899 12.1348 3.49833C11.2795 2.84768 10.2061 2.51812 8.91455 2.50967C7.57933 2.50122 6.46665 2.78853 5.5765 3.37158C4.69509 3.95464 4.03184 4.77429 3.58677 5.83055C3.14169 6.87836 2.91479 8.0994 2.90607 9.49366C2.89734 10.8879 3.11551 12.109 3.56058 13.1568C4.00566 14.1961 4.67327 15.0073 5.56341 15.5904C6.46229 16.1735 7.57933 16.4692 8.91455 16.4777C9.98796 16.4946 10.9087 16.3044 11.6766 15.9073C12.4533 15.5017 13.0686 14.9102 13.5224 14.1328C13.9762 13.3553 14.2685 12.4005 14.3994 11.2682H10.7341V9.13876H17.3055C17.3229 9.29086 17.336 9.49366 17.3448 9.74717C17.3535 9.99222 17.3578 10.1485 17.3578 10.2161C17.3578 11.9062 17.0219 13.4145 16.3499 14.7412C15.6779 16.0678 14.7005 17.1114 13.4176 17.8719C12.1348 18.624 10.5814 19 8.75747 19Z" fill="url(#paint0_linear_2010_6197)"/>
<path d="M18.1465 18.6198L24.2728 0.367579L28.213 0.367579L34.3394 18.6198H31.4987L25.8568 1.96464H26.5637L20.9872 18.6198H18.1465ZM21.3275 14.5003V12.016H31.1715V14.5003H21.3275Z" fill="url(#paint1_linear_2010_6197)"/>
<path d="M36.6879 18.6198V0.367579L39.1619 0.367579L45.9951 14.0947L52.789 0.367579H55.2893V18.6071H52.6974V6.12208L46.6104 18.6198H45.3668L39.2666 6.12208V18.6198H36.6879Z" fill="url(#paint2_linear_2010_6197)"/>
<path d="M58.9568 18.6198V0.367579L71 0.367579V2.86458L61.6927 2.86458V7.98532H69.4291V10.4823H61.6927V16.1227H71V18.6198H58.9568Z" fill="url(#paint3_linear_2010_6197)"/>
<path d="M83.8691 20C81.9937 20 80.3961 19.5822 79.0764 18.7467C77.7567 17.9022 76.7452 16.7289 76.0419 15.2267C75.3473 13.7244 75 11.9822 75 10C75 8.01778 75.3473 6.27556 76.0419 4.77333C76.7452 3.27111 77.7567 2.10222 79.0764 1.26667C80.3961 0.422222 81.9937 0 83.8691 0C86.0311 0 87.8196 0.56 89.2349 1.68C90.6588 2.8 91.6486 4.30667 92.2043 6.2L89.4433 6.96C89.0786 5.61778 88.4274 4.56444 87.4897 3.8C86.5607 3.03556 85.3538 2.65333 83.8691 2.65333C82.5407 2.65333 81.4337 2.96 80.5481 3.57333C79.6625 4.18667 78.9939 5.04445 78.5424 6.14667C78.0996 7.24889 77.8782 8.53333 77.8782 10C77.8696 11.4667 78.0866 12.7511 78.5294 13.8533C78.9809 14.9556 79.6494 15.8133 80.5351 16.4267C81.4293 17.04 82.5407 17.3467 83.8691 17.3467C85.3538 17.3467 86.5607 16.9644 87.4897 16.2C88.4274 15.4267 89.0786 14.3733 89.4433 13.04L92.2043 13.8C91.6486 15.6933 90.6588 17.2 89.2349 18.32C87.8196 19.44 86.0311 20 83.8691 20Z" fill="url(#paint4_linear_2010_6197)"/>
<path d="M83.8691 20C81.9937 20 80.3961 19.5822 79.0764 18.7467C77.7567 17.9022 76.7452 16.7289 76.0419 15.2267C75.3473 13.7244 75 11.9822 75 10C75 8.01778 75.3473 6.27556 76.0419 4.77333C76.7452 3.27111 77.7567 2.10222 79.0764 1.26667C80.3961 0.422222 81.9937 0 83.8691 0C86.0311 0 87.8196 0.56 89.2349 1.68C90.6588 2.8 91.6486 4.30667 92.2043 6.2L89.4433 6.96C89.0786 5.61778 88.4274 4.56444 87.4897 3.8C86.5607 3.03556 85.3538 2.65333 83.8691 2.65333C82.5407 2.65333 81.4337 2.96 80.5481 3.57333C79.6625 4.18667 78.9939 5.04445 78.5424 6.14667C78.0996 7.24889 77.8782 8.53333 77.8782 10C77.8696 11.4667 78.0866 12.7511 78.5294 13.8533C78.9809 14.9556 79.6494 15.8133 80.5351 16.4267C81.4293 17.04 82.5407 17.3467 83.8691 17.3467C85.3538 17.3467 86.5607 16.9644 87.4897 16.2C88.4274 15.4267 89.0786 14.3733 89.4433 13.04L92.2043 13.8C91.6486 15.6933 90.6588 17.2 89.2349 18.32C87.8196 19.44 86.0311 20 83.8691 20Z" fill="url(#paint5_linear_2010_6197)"/>
<path d="M100.151 19.6L106.246 0.4L110.166 0.4L116.261 19.6H113.435L107.822 2.08H108.525L102.977 19.6H100.151ZM103.316 15.2667V12.6533H113.109V15.2667H103.316Z" fill="url(#paint6_linear_2010_6197)"/>
<path d="M100.151 19.6L106.246 0.4L110.166 0.4L116.261 19.6H113.435L107.822 2.08H108.525L102.977 19.6H100.151ZM103.316 15.2667V12.6533H113.109V15.2667H103.316Z" fill="url(#paint7_linear_2010_6197)"/>
<path d="M118.598 19.6V0.4H121.359L130.593 14.6667V0.4H133.354V19.6H130.593L121.359 5.32V19.6H118.598Z" fill="url(#paint8_linear_2010_6197)"/>
<path d="M118.598 19.6V0.4H121.359L130.593 14.6667V0.4H133.354V19.6H130.593L121.359 5.32V19.6H118.598Z" fill="url(#paint9_linear_2010_6197)"/>
<path d="M144.66 20C143.401 20 142.241 19.7778 141.182 19.3333C140.123 18.88 139.203 18.2222 138.421 17.36C137.64 16.4978 137.032 15.4489 136.598 14.2133C136.164 12.9778 135.947 11.5733 135.947 10C135.947 7.92889 136.316 6.15111 137.054 4.66667C137.792 3.17333 138.816 2.02667 140.127 1.22667C141.438 0.417777 142.949 0.0133324 144.66 0.0133324C146.865 0.0133324 148.623 0.537777 149.934 1.58667C151.254 2.63556 152.153 4.08444 152.63 5.93333L149.869 6.44C149.487 5.29333 148.871 4.37778 148.02 3.69333C147.169 3.00889 146.101 2.66222 144.816 2.65333C143.487 2.64444 142.38 2.94667 141.495 3.56C140.618 4.17333 139.958 5.03556 139.515 6.14667C139.072 7.24889 138.847 8.53333 138.838 10C138.829 11.4667 139.046 12.7511 139.489 13.8533C139.932 14.9467 140.596 15.8 141.482 16.4133C142.376 17.0267 143.487 17.3378 144.816 17.3467C145.884 17.3644 146.8 17.1644 147.564 16.7467C148.337 16.32 148.949 15.6978 149.4 14.88C149.852 14.0622 150.143 13.0578 150.273 11.8667H146.626V9.62667H153.164C153.181 9.78667 153.194 10 153.203 10.2667C153.212 10.5244 153.216 10.6889 153.216 10.76C153.216 12.5378 152.882 14.1244 152.213 15.52C151.545 16.9156 150.572 18.0133 149.296 18.8133C148.02 19.6044 146.474 20 144.66 20Z" fill="url(#paint10_linear_2010_6197)"/>
<path d="M144.66 20C143.401 20 142.241 19.7778 141.182 19.3333C140.123 18.88 139.203 18.2222 138.421 17.36C137.64 16.4978 137.032 15.4489 136.598 14.2133C136.164 12.9778 135.947 11.5733 135.947 10C135.947 7.92889 136.316 6.15111 137.054 4.66667C137.792 3.17333 138.816 2.02667 140.127 1.22667C141.438 0.417777 142.949 0.0133324 144.66 0.0133324C146.865 0.0133324 148.623 0.537777 149.934 1.58667C151.254 2.63556 152.153 4.08444 152.63 5.93333L149.869 6.44C149.487 5.29333 148.871 4.37778 148.02 3.69333C147.169 3.00889 146.101 2.66222 144.816 2.65333C143.487 2.64444 142.38 2.94667 141.495 3.56C140.618 4.17333 139.958 5.03556 139.515 6.14667C139.072 7.24889 138.847 8.53333 138.838 10C138.829 11.4667 139.046 12.7511 139.489 13.8533C139.932 14.9467 140.596 15.8 141.482 16.4133C142.376 17.0267 143.487 17.3378 144.816 17.3467C145.884 17.3644 146.8 17.1644 147.564 16.7467C148.337 16.32 148.949 15.6978 149.4 14.88C149.852 14.0622 150.143 13.0578 150.273 11.8667H146.626V9.62667H153.164C153.181 9.78667 153.194 10 153.203 10.2667C153.212 10.5244 153.216 10.6889 153.216 10.76C153.216 12.5378 152.882 14.1244 152.213 15.52C151.545 16.9156 150.572 18.0133 149.296 18.8133C148.02 19.6044 146.474 20 144.66 20Z" fill="url(#paint11_linear_2010_6197)"/>
<path d="M155.812 19.6V0.4L167.794 0.4V3.02667L158.534 3.02667V8.41333H166.231V11.04H158.534V16.9733H167.794V19.6H155.812Z" fill="url(#paint12_linear_2010_6197)"/>
<path d="M155.812 19.6V0.4L167.794 0.4V3.02667L158.534 3.02667V8.41333H166.231V11.04H158.534V16.9733H167.794V19.6H155.812Z" fill="url(#paint13_linear_2010_6197)"/>
<path d="M170.921 19.6V0.4L178.501 0.4C178.683 0.4 178.909 0.408888 179.178 0.426666C179.448 0.435555 179.704 0.462222 179.947 0.506667C180.989 0.675555 181.857 1.04 182.552 1.6C183.255 2.16 183.78 2.86667 184.127 3.72C184.475 4.57333 184.648 5.51556 184.648 6.54667C184.648 8.07556 184.266 9.39556 183.502 10.5067C182.738 11.6089 181.592 12.2978 180.064 12.5733L178.957 12.7067H173.643V19.6H170.921ZM181.887 19.6L178.189 11.7867L180.937 11.0667L185 19.6H181.887ZM173.643 10.0667H178.397C178.571 10.0667 178.762 10.0578 178.97 10.04C179.187 10.0222 179.391 9.99111 179.582 9.94667C180.138 9.81333 180.585 9.56889 180.924 9.21333C181.262 8.84889 181.505 8.43111 181.653 7.96C181.8 7.48889 181.874 7.01778 181.874 6.54667C181.874 6.07556 181.8 5.60889 181.653 5.14667C181.505 4.67555 181.262 4.26222 180.924 3.90667C180.585 3.54222 180.138 3.29333 179.582 3.16C179.391 3.10667 179.187 3.07111 178.97 3.05333C178.762 3.03556 178.571 3.02667 178.397 3.02667H173.643V10.0667Z" fill="url(#paint14_linear_2010_6197)"/>
<path d="M170.921 19.6V0.4L178.501 0.4C178.683 0.4 178.909 0.408888 179.178 0.426666C179.448 0.435555 179.704 0.462222 179.947 0.506667C180.989 0.675555 181.857 1.04 182.552 1.6C183.255 2.16 183.78 2.86667 184.127 3.72C184.475 4.57333 184.648 5.51556 184.648 6.54667C184.648 8.07556 184.266 9.39556 183.502 10.5067C182.738 11.6089 181.592 12.2978 180.064 12.5733L178.957 12.7067H173.643V19.6H170.921ZM181.887 19.6L178.189 11.7867L180.937 11.0667L185 19.6H181.887ZM173.643 10.0667H178.397C178.571 10.0667 178.762 10.0578 178.97 10.04C179.187 10.0222 179.391 9.99111 179.582 9.94667C180.138 9.81333 180.585 9.56889 180.924 9.21333C181.262 8.84889 181.505 8.43111 181.653 7.96C181.8 7.48889 181.874 7.01778 181.874 6.54667C181.874 6.07556 181.8 5.60889 181.653 5.14667C181.505 4.67555 181.262 4.26222 180.924 3.90667C180.585 3.54222 180.138 3.29333 179.582 3.16C179.391 3.10667 179.187 3.07111 178.97 3.05333C178.762 3.03556 178.571 3.02667 178.397 3.02667H173.643V10.0667Z" fill="url(#paint15_linear_2010_6197)"/>
<path d="M85.6826 9.99333C85.6826 9.268 86.2706 8.68 86.996 8.68H95.0597V0.4C96.5701 0.4 97.7946 1.62449 97.7946 3.13497V19.6C96.2842 19.6 95.0597 18.3755 95.0597 16.865V11.3067H86.996C86.2706 11.3067 85.6826 10.7187 85.6826 9.99333Z" fill="url(#paint16_linear_2010_6197)"/>
<path d="M85.6826 9.99333C85.6826 9.268 86.2706 8.68 86.996 8.68H95.0597V0.4C96.5701 0.4 97.7946 1.62449 97.7946 3.13497V19.6C96.2842 19.6 95.0597 18.3755 95.0597 16.865V11.3067H86.996C86.2706 11.3067 85.6826 10.7187 85.6826 9.99333Z" fill="url(#paint17_linear_2010_6197)"/>
</g>
<defs>
<linearGradient id="paint0_linear_2010_6197" x1="-6.82139e-09" y1="9.93183" x2="183.197" y2="10.0788" gradientUnits="userSpaceOnUse">
<stop stop-color="#F3C57A"/>
<stop offset="1" stop-color="#5BA1A1"/>
</linearGradient>
<linearGradient id="paint1_linear_2010_6197" x1="-6.82139e-09" y1="9.93183" x2="183.197" y2="10.0788" gradientUnits="userSpaceOnUse">
<stop stop-color="#F3C57A"/>
<stop offset="1" stop-color="#5BA1A1"/>
</linearGradient>
<linearGradient id="paint2_linear_2010_6197" x1="-6.82139e-09" y1="9.93183" x2="183.197" y2="10.0788" gradientUnits="userSpaceOnUse">
<stop stop-color="#F3C57A"/>
<stop offset="1" stop-color="#5BA1A1"/>
</linearGradient>
<linearGradient id="paint3_linear_2010_6197" x1="-6.82139e-09" y1="9.93183" x2="183.197" y2="10.0788" gradientUnits="userSpaceOnUse">
<stop stop-color="#F3C57A"/>
<stop offset="1" stop-color="#5BA1A1"/>
</linearGradient>
<linearGradient id="paint4_linear_2010_6197" x1="0.156466" y1="10" x2="185" y2="10.2183" gradientUnits="userSpaceOnUse">
<stop stop-color="#B4B4B4"/>
<stop offset="1" stop-color="#4E4E4E"/>
</linearGradient>
<linearGradient id="paint5_linear_2010_6197" x1="0.156466" y1="10" x2="185" y2="10.2183" gradientUnits="userSpaceOnUse">
<stop stop-color="#F3C57A"/>
<stop offset="1" stop-color="#5BA1A1"/>
</linearGradient>
<linearGradient id="paint6_linear_2010_6197" x1="0.156466" y1="10" x2="185" y2="10.2183" gradientUnits="userSpaceOnUse">
<stop stop-color="#B4B4B4"/>
<stop offset="1" stop-color="#4E4E4E"/>
</linearGradient>
<linearGradient id="paint7_linear_2010_6197" x1="0.156466" y1="10" x2="185" y2="10.2183" gradientUnits="userSpaceOnUse">
<stop stop-color="#F3C57A"/>
<stop offset="1" stop-color="#5BA1A1"/>
</linearGradient>
<linearGradient id="paint8_linear_2010_6197" x1="0.156466" y1="10" x2="185" y2="10.2183" gradientUnits="userSpaceOnUse">
<stop stop-color="#B4B4B4"/>
<stop offset="1" stop-color="#4E4E4E"/>
</linearGradient>
<linearGradient id="paint9_linear_2010_6197" x1="0.156466" y1="10" x2="185" y2="10.2183" gradientUnits="userSpaceOnUse">
<stop stop-color="#F3C57A"/>
<stop offset="1" stop-color="#5BA1A1"/>
</linearGradient>
<linearGradient id="paint10_linear_2010_6197" x1="0.156466" y1="10" x2="185" y2="10.2183" gradientUnits="userSpaceOnUse">
<stop stop-color="#B4B4B4"/>
<stop offset="1" stop-color="#4E4E4E"/>
</linearGradient>
<linearGradient id="paint11_linear_2010_6197" x1="0.156466" y1="10" x2="185" y2="10.2183" gradientUnits="userSpaceOnUse">
<stop stop-color="#F3C57A"/>
<stop offset="1" stop-color="#5BA1A1"/>
</linearGradient>
<linearGradient id="paint12_linear_2010_6197" x1="0.156466" y1="10" x2="185" y2="10.2183" gradientUnits="userSpaceOnUse">
<stop stop-color="#B4B4B4"/>
<stop offset="1" stop-color="#4E4E4E"/>
</linearGradient>
<linearGradient id="paint13_linear_2010_6197" x1="0.156466" y1="10" x2="185" y2="10.2183" gradientUnits="userSpaceOnUse">
<stop stop-color="#F3C57A"/>
<stop offset="1" stop-color="#5BA1A1"/>
</linearGradient>
<linearGradient id="paint14_linear_2010_6197" x1="0.156466" y1="10" x2="185" y2="10.2183" gradientUnits="userSpaceOnUse">
<stop stop-color="#B4B4B4"/>
<stop offset="1" stop-color="#4E4E4E"/>
</linearGradient>
<linearGradient id="paint15_linear_2010_6197" x1="0.156466" y1="10" x2="185" y2="10.2183" gradientUnits="userSpaceOnUse">
<stop stop-color="#F3C57A"/>
<stop offset="1" stop-color="#5BA1A1"/>
</linearGradient>
<linearGradient id="paint16_linear_2010_6197" x1="0.156466" y1="10" x2="185" y2="10.2183" gradientUnits="userSpaceOnUse">
<stop stop-color="#B4B4B4"/>
<stop offset="1" stop-color="#4E4E4E"/>
</linearGradient>
<linearGradient id="paint17_linear_2010_6197" x1="0.156466" y1="10" x2="185" y2="10.2183" gradientUnits="userSpaceOnUse">
<stop stop-color="#F3C57A"/>
<stop offset="1" stop-color="#5BA1A1"/>
</linearGradient>
</defs>
</svg>
